<?xml version="1.0" standalone="no"?>
<!DOCTYPE svg PUBLIC "-//W3C//DTD SVG 20010904//EN"
 "http://www.w3.org/TR/2001/REC-SVG-20010904/DTD/svg10.dtd">
<svg version="1.0" xmlns="http://www.w3.org/2000/svg"
 width="512.000000pt" height="512.000000pt" viewBox="0 0 512.000000 512.000000"
 preserveAspectRatio="xMidYMid meet">
<metadata>
Created by potrace 1.11, written by Peter Selinger 2001-2013
</metadata>
<g transform="translate(0.000000,512.000000) scale(0.100000,-0.100000)"
fill="#000000" stroke="none">
<path d="M1405 4629 c-11 -6 -37 -32 -58 -57 -20 -26 -52 -63 -70 -83 -32 -35
-128 -145 -164 -185 -10 -12 -50 -57 -89 -100 -39 -43 -93 -104 -119 -134
-117 -134 -178 -200 -186 -200 -5 0 -79 57 -165 127 -211 173 -216 176 -253
168 -36 -8 -141 -109 -141 -135 0 -42 28 -80 197 -268 300 -333 318 -354 315
-364 -1 -5 2 -7 7 -4 5 4 14 -1 18 -9 5 -9 25 -18 45 -21 38 -7 52 3 90 56 66
93 367 506 390 535 105 134 378 526 378 543 0 35 -16 58 -71 102 -52 41 -85
48 -124 29z"/>
<path d="M4350 4634 c-31 -11 -65 -29 -78 -41 -17 -16 -212 -302 -215 -315 -1
-6 21 -18 48 -28 118 -42 260 -116 358 -189 70 -52 247 -222 247 -238 0 -32
29 -6 80 70 30 45 57 84 60 87 11 10 77 115 95 149 20 40 16 111 -9 159 -21
42 -151 178 -205 215 -134 93 -315 155 -381 131z"/>
<path d="M3870 4012 c-24 -37 -47 -69 -50 -72 -3 -3 -43 -61 -89 -130 -47 -69
-121 -179 -167 -245 -45 -66 -129 -190 -188 -275 -58 -85 -109 -159 -114 -165
-4 -5 -33 -48 -65 -95 -31 -47 -97 -143 -146 -215 -123 -178 -186 -270 -278
-405 -43 -63 -112 -164 -154 -225 -319 -462 -488 -715 -497 -745 -6 -19 -41
-161 -77 -315 -36 -154 -79 -335 -95 -403 -17 -67 -30 -129 -30 -138 0 -33 32
-82 61 -94 42 -18 81 -7 152 43 34 24 200 139 369 255 l307 213 87 127 c48 70
117 170 153 222 36 52 69 97 73 98 4 2 8 10 8 18 0 8 5 14 10 14 6 0 10 6 10
13 0 7 8 22 18 33 9 10 43 57 74 104 67 100 224 331 265 388 15 22 34 48 40
58 7 11 61 90 120 176 60 87 138 201 175 255 36 54 123 181 193 283 69 102
156 228 191 280 114 166 223 325 231 335 4 6 39 57 77 113 l69 103 -29 31
c-191 208 -371 331 -603 413 -24 8 -46 15 -50 15 -3 0 -26 -31 -51 -68z
m-1487 -2677 c92 -24 173 -82 224 -163 19 -29 33 -55 31 -56 -1 -2 -91 -61
-198 -133 l-196 -131 -26 22 c-20 16 -24 26 -18 41 4 12 10 36 13 55 4 32 73
338 82 368 5 16 18 15 88 -3z"/>
<path d="M1413 3353 c-7 -2 -81 -82 -165 -176 -84 -95 -155 -174 -158 -177 -3
-3 -36 -41 -75 -85 -38 -44 -74 -85 -80 -91 -5 -6 -39 -44 -75 -85 -36 -41
-75 -84 -87 -96 -12 -12 -28 -31 -36 -43 -13 -19 -20 -14 -187 121 -95 77
-184 148 -196 156 -33 21 -71 9 -125 -41 -93 -86 -93 -109 4 -216 18 -19 131
-145 252 -280 121 -135 224 -249 230 -253 14 -11 72 -1 88 15 7 7 37 48 67 90
30 44 58 75 64 71 6 -3 8 -3 4 1 -7 9 8 34 67 116 245 335 352 482 365 501 8
12 24 34 36 48 11 14 59 80 107 147 104 145 107 158 41 221 -58 56 -100 73
-141 56z"/>
<path d="M303 1744 c-67 -24 -124 -93 -139 -168 -2 -12 -4 -219 -4 -461 0
-484 2 -500 61 -563 66 -70 41 -67 579 -67 l485 0 42 27 c114 74 113 71 113
604 0 241 -2 448 -4 460 -13 65 -60 129 -119 161 -29 16 -75 18 -502 20 -397
2 -477 -1 -512 -13z m811 -320 c3 -8 6 -150 6 -314 -1 -260 -3 -299 -16 -304
-9 -3 -150 -6 -314 -6 -262 0 -299 2 -304 16 -3 8 -6 150 -6 314 1 225 4 300
13 303 7 3 148 6 313 6 266 1 303 -1 308 -15z"/>
</g>
</svg>
